Patient4_TMGait_0pt4_02_right_09_GRF.mot
version=1
nRows=45
nColumns=19
inDegrees=no
endheader
time	F1x	F1y	F1z	M1x	M1y	M1z	F2x	F2y	F2z	M2x	M2y	M2z	EC1x	EC1y	EC1z	EC2x	EC2y	EC2z
11.45	4.6093	728.1025	51.725	-259.6965	-49.5816	794.1805	19.8144	2.2872	-6.3836	3.091	-0.60936	-1.2797	-0.0592	0.0182	-0.0073	-0.0462	0.0165	0.9585
11.4629	8.8986	725.8597	51.9777	-258.7345	-48.3311	791.3608	13.3233	2.3374	-4.3713	2.4051	-0.29295	-0.011926	-0.0592	0.0182	-0.0073	-0.0462	0.0165	0.9585
11.4759	12.7228	724.2203	52.0263	-257.9745	-46.897	788.6384	7.7497	2.4094	-2.6608	1.8378	-0.0058009	1.1437	-0.0592	0.0182	-0.0073	-0.0462	0.0165	0.9585
11.4888	15.8831	723.7494	51.8108	-257.6267	-45.2966	786.6407	3.4175	2.5106	-1.3632	1.4249	0.24622	2.1284	-0.0592	0.0182	-0.0073	-0.0462	0.0165	0.9585
11.5017	18.3815	724.8999	51.2984	-257.8564	-43.5293	785.9355	0.37783	2.6058	-0.46559	1.1556	0.4367	2.8663	-0.0592	0.0182	-0.0073	-0.0462	0.0165	0.9585
11.5146	20.3323	727.9034	50.5687	-258.7399	-41.675	786.8835	-1.5658	2.7096	0.078702	1.0084	0.58393	3.4103	-0.0592	0.0182	-0.0073	-0.0462	0.0165	0.9585
11.5276	21.8933	732.7244	49.705	-260.2528	-39.8051	789.5526	-2.6477	2.7797	0.36057	0.94015	0.68507	3.7338	-0.0592	0.0182	-0.0073	-0.0462	0.0165	0.9585
11.5405	23.2053	739.0912	48.8369	-262.2765	-38.0305	793.7574	-3.1456	2.7723	0.45311	0.90428	0.76595	3.8308	-0.0592	0.0182	-0.0073	-0.0462	0.0165	0.9585
11.5534	24.4139	746.5733	48.0415	-264.6359	-36.4067	799.1049	-3.2858	2.6471	0.43116	0.85736	0.83611	3.6942	-0.0592	0.0182	-0.0073	-0.0462	0.0165	0.9585
11.5664	25.6003	754.6432	47.4037	-267.1226	-35.0027	805.0925	-3.2307	2.3106	0.34099	0.74511	0.91084	3.2461	-0.0592	0.0182	-0.0073	-0.0462	0.0165	0.9585
11.5793	26.8757	762.677	46.9689	-269.5043	-33.8387	811.071	-3.1312	1.6859	0.22965	0.5211	0.99119	2.4322	-0.0592	0.0182	-0.0073	-0.0462	0.0165	0.9585
11.5922	28.3103	769.9822	46.7879	-271.5321	-32.9381	816.3249	-3.0047	0.67171	0.11262	0.13799	1.0689	1.1262	-0.0592	0.0182	-0.0073	-0.0462	0.0165	0.9585
11.6051	29.9631	775.832	46.8639	-272.9495	-32.2804	820.0873	-2.8886	-0.79067	0.014361	-0.43376	1.1244	-0.72408	-0.0592	0.0182	-0.0073	-0.0462	0.0165	0.9585
11.6181	31.8228	779.4552	47.2137	-273.485	-31.8758	821.5689	-2.7146	-2.7449	-0.055253	-1.2086	1.1182	-3.1804	-0.0592	0.0182	-0.0073	-0.0462	0.0165	0.9585
11.631	33.8243	780.0988	47.843	-272.8721	-31.7432	820.0258	-2.3962	-5.0827	-0.067639	-2.1456	0.98044	-6.1029	-0.0592	0.0182	-0.0073	-0.0462	0.0165	0.9585
11.6439	35.8623	777.2154	48.7804	-270.9128	-31.9406	814.9417	-1.7953	-7.5476	0.0020365	-3.1393	0.62855	-9.1703	-0.0592	0.0182	-0.0073	-0.0462	0.0165	0.9585
11.6569	37.7843	770.6827	50.0232	-267.5573	-32.5208	806.2781	-0.74202	-9.6089	0.19529	-3.9724	-0.048437	-11.7222	-0.0592	0.0182	-0.0073	-0.0462	0.0165	0.9585
11.6698	39.4721	760.8832	51.5603	-262.9437	-33.5241	794.5004	0.9319	-10.351	0.53834	-4.2761	-1.1452	-12.6097	-0.0592	0.0182	-0.0073	-0.0462	0.0165	0.9585
11.6827	40.8262	748.6925	53.3422	-257.3958	-34.949	780.5885	3.3855	-8.4514	1.0637	-3.5107	-2.753	-10.1921	-0.0592	0.0182	-0.0073	-0.0462	0.0165	0.9585
11.6956	41.8431	735.2133	55.2717	-251.3328	-36.7147	765.7079	6.6322	-2.113	1.7714	-0.94695	-4.8762	-2.2203	-0.0592	0.0182	-0.0073	-0.0462	0.0165	0.9585
11.7086	42.5698	721.4125	57.2004	-245.1345	-38.6661	750.8586	10.5577	10.8196	2.6217	4.294	-7.4103	13.9651	-0.0592	0.0182	-0.0073	-0.0462	0.0165	0.9585
11.7215	43.1332	707.7674	58.9332	-239.0086	-40.5642	736.4843	14.6949	32.6447	3.5042	13.1436	-10.0295	41.2183	-0.0592	0.0182	-0.0073	-0.0462	0.0165	0.9585
11.7344	43.6643	693.9698	60.2481	-232.8924	-42.1264	722.1905	18.1543	65.2755	4.2254	26.3798	-12.1285	81.8961	-0.0592	0.0182	-0.0073	-0.0462	0.0165	0.9585
11.7474	44.2309	678.8648	60.8589	-226.4386	-43.0231	706.7113	19.4512	109.467	4.4478	44.3046	-12.6972	136.9023	-0.0592	0.0182	-0.0073	-0.0462	0.0165	0.9585
11.7603	44.8402	660.6272	60.4688	-219.0834	-42.9281	688.0714	16.7843	163.9447	3.6716	66.381	-10.408	204.6463	-0.0592	0.0182	-0.0073	-0.0462	0.0165	0.9585
11.7732	45.3635	637.2254	58.7625	-210.2017	-41.5433	664.1129	9.3033	224.9872	1.3518	91.031	-4.2278	280.5603	-0.0592	0.0182	-0.0073	-0.0462	0.0165	0.9585
11.7861	45.5576	606.8159	55.5556	-199.2364	-38.7389	632.8757	-1.7977	286.3247	-2.9092	115.6675	5.737	356.8608	-0.0592	0.0182	-0.0073	-0.0462	0.0165	0.9585
11.7991	45.1031	568.2658	50.8931	-185.844	-34.6513	593.1596	-13.6535	342.0542	-8.8323	137.9146	17.9496	425.9263	-0.0592	0.0182	-0.0073	-0.0462	0.0165	0.9585
11.812	43.6889	521.434	45.119	-169.9771	-29.7076	544.8131	-24.4172	390.0594	-15.9576	156.9258	31.0647	484.9669	-0.0592	0.0182	-0.0073	-0.0462	0.0165	0.9585
11.8249	41.0886	467.3679	38.7574	-151.9469	-24.4954	488.9133	-33.1464	431.5876	-23.2684	173.2681	43.5437	535.4526	-0.0592	0.0182	-0.0073	-0.0462	0.0165	0.9585
11.8379	37.1998	408.1722	32.383	-132.3916	-19.6165	427.6365	-39.7306	469.1752	-30.2089	188.0372	54.6362	580.611	-0.0592	0.0182	-0.0073	-0.0462	0.0165	0.9585
11.8508	32.0847	346.6869	26.4395	-112.1888	-15.5024	363.8972	-44.3476	505.452	-36.1312	202.3703	63.6966	623.7259	-0.0592	0.0182	-0.0073	-0.0462	0.0165	0.9585
11.8637	25.8641	286.086	21.1905	-92.3362	-12.3909	300.9954	-47.3174	542.3562	-40.9872	217.0871	70.7858	667.2388	-0.0592	0.0182	-0.0073	-0.0462	0.0165	0.9585
11.8766	18.8817	229.4299	16.7666	-73.8068	-10.3257	242.0924	-49.0453	580.9072	-44.7121	232.6107	76.0478	712.45	-0.0592	0.0182	-0.0073	-0.0462	0.0165	0.9585
11.8896	11.6593	179.1291	13.1854	-57.3736	-9.173	189.701	-49.952	620.8433	-47.631	248.8043	80.0242	759.1496	-0.0592	0.0182	-0.0073	-0.0462	0.0165	0.9585
11.9025	4.8472	136.4963	10.3857	-43.4664	-8.6679	145.1689	-50.4539	660.6217	-49.8942	265.0024	83.0814	805.5674	-0.0592	0.0182	-0.0073	-0.0462	0.0165	0.9585
11.9154	-1.0299	101.7391	8.2303	-32.16	-8.4961	108.7187	-50.9847	697.9433	-51.8673	280.223	85.7753	849.0471	-0.0592	0.0182	-0.0073	-0.0462	0.0165	0.9585
11.9284	-5.6369	74.21	6.5611	-23.2494	-8.3817	79.7077	-51.7896	730.6895	-53.6444	293.5688	88.2999	887.0935	-0.0592	0.0182	-0.0073	-0.0462	0.0165	0.9585
11.9413	-8.7913	52.7808	5.2302	-16.3675	-8.1137	57.001	-52.8534	757.4353	-55.2909	304.4326	90.6865	918.0046	-0.0592	0.0182	-0.0073	-0.0462	0.0165	0.9585
11.9542	-10.439	36.2581	4.1178	-11.116	-7.5535	39.41	-53.9817	777.467	-56.594	312.5253	92.6073	940.8751	-0.0592	0.0182	-0.0073	-0.0462	0.0165	0.9585
11.9671	-10.5593	23.5822	3.127	-7.1374	-6.6094	25.8525	-54.8772	790.6208	-57.4501	317.7896	93.8068	955.4421	-0.0592	0.0182	-0.0073	-0.0462	0.0165	0.9585
11.9801	-9.3332	14.0131	2.2084	-4.1733	-5.2985	15.586	-55.2614	797.1118	-57.7451	320.3244	94.0602	961.8848	-0.0592	0.0182	-0.0073	-0.0462	0.0165	0.9585
11.993	-7.2616	7.1758	1.392	-2.0833	-3.821	8.2074	-54.9879	797.3323	-57.5704	320.3021	93.4185	960.628	-0.0592	0.0182	-0.0073	-0.0462	0.0165	0.9585
12.0059	-5.029	2.7551	0.74712	-0.75132	-2.4642	3.4238	-54.0165	791.9502	-57.0198	318.0054	91.9965	952.4499	-0.0592	0.0182	-0.0073	-0.0462	0.0165	0.9585
12.0189	-3.005	0.23529	0.28561	-0.010039	-1.3594	0.70174	-52.3348	782.0653	-56.2504	313.888	89.9869	938.6377	-0.0592	0.0182	-0.0073	-0.0462	0.0165	0.9585
